<mxfile host="app.diagrams.net" modified="2024-07-12T09:11:14.775Z" agent="Mozilla/5.0 (Macintosh; Intel Mac OS X 10_15_7) AppleWebKit/537.36 (KHTML, like Gecko) Chrome/126.0.0.0 Safari/537.36" etag="XaNfrnUiOu2AxyGDBqbH" version="24.6.5" type="github">
  <diagram id="D_C9CgoH1-oNJAdn1xfm" name="Page-1">
    <mxGraphModel dx="2822" dy="1773" grid="1" gridSize="10" guides="1" tooltips="1" connect="1" arrows="1" fold="1" page="1" pageScale="1" pageWidth="1654" pageHeight="1169" math="0" shadow="0">
      <root>
        <mxCell id="0" />
        <mxCell id="1" parent="0" />
        <mxCell id="lGr2Wmkbl2Xa5cx99aQg-23" value="" style="endArrow=none;dashed=1;html=1;dashPattern=1 3;strokeWidth=2;rounded=0;" parent="1" edge="1">
          <mxGeometry width="50" height="50" relative="1" as="geometry">
            <mxPoint x="870" y="-310" as="sourcePoint" />
            <mxPoint x="3420" y="-310" as="targetPoint" />
          </mxGeometry>
        </mxCell>
        <mxCell id="lGr2Wmkbl2Xa5cx99aQg-25" value="" style="endArrow=none;dashed=1;html=1;dashPattern=1 3;strokeWidth=2;rounded=0;" parent="1" edge="1">
          <mxGeometry width="50" height="50" relative="1" as="geometry">
            <mxPoint x="2460" y="90" as="sourcePoint" />
            <mxPoint x="3480" y="90" as="targetPoint" />
          </mxGeometry>
        </mxCell>
        <mxCell id="lGr2Wmkbl2Xa5cx99aQg-52" value="" style="endArrow=none;dashed=1;html=1;dashPattern=1 3;strokeWidth=2;rounded=0;" parent="1" edge="1">
          <mxGeometry width="50" height="50" relative="1" as="geometry">
            <mxPoint x="870" y="660" as="sourcePoint" />
            <mxPoint x="3420" y="660" as="targetPoint" />
          </mxGeometry>
        </mxCell>
        <mxCell id="lGr2Wmkbl2Xa5cx99aQg-56" value="" style="endArrow=none;dashed=1;html=1;dashPattern=1 3;strokeWidth=2;rounded=0;" parent="1" edge="1">
          <mxGeometry width="50" height="50" relative="1" as="geometry">
            <mxPoint x="1230" y="890" as="sourcePoint" />
            <mxPoint x="3430" y="890" as="targetPoint" />
          </mxGeometry>
        </mxCell>
        <mxCell id="lGr2Wmkbl2Xa5cx99aQg-114" value="" style="endArrow=none;dashed=1;html=1;dashPattern=1 3;strokeWidth=2;rounded=0;" parent="1" edge="1">
          <mxGeometry width="50" height="50" relative="1" as="geometry">
            <mxPoint x="870" y="90" as="sourcePoint" />
            <mxPoint x="2460" y="90" as="targetPoint" />
          </mxGeometry>
        </mxCell>
        <mxCell id="Z79DcYoqA_sEa1cY5hHF-61" style="edgeStyle=orthogonalEdgeStyle;rounded=0;orthogonalLoop=1;jettySize=auto;html=1;" parent="1" source="Z79DcYoqA_sEa1cY5hHF-1" target="Z79DcYoqA_sEa1cY5hHF-10" edge="1">
          <mxGeometry relative="1" as="geometry" />
        </mxCell>
        <mxCell id="Z79DcYoqA_sEa1cY5hHF-62" style="edgeStyle=orthogonalEdgeStyle;rounded=0;orthogonalLoop=1;jettySize=auto;html=1;exitX=0.75;exitY=1;exitDx=0;exitDy=0;" parent="1" source="Z79DcYoqA_sEa1cY5hHF-1" target="Z79DcYoqA_sEa1cY5hHF-11" edge="1">
          <mxGeometry relative="1" as="geometry" />
        </mxCell>
        <mxCell id="Z79DcYoqA_sEa1cY5hHF-1" value="Levelling the playing field" style="rounded=0;whiteSpace=wrap;html=1;" parent="1" vertex="1">
          <mxGeometry x="240" y="-1130" width="120" height="60" as="geometry" />
        </mxCell>
        <mxCell id="Z79DcYoqA_sEa1cY5hHF-2" value="Vision" style="text;html=1;align=center;verticalAlign=middle;resizable=0;points=[];autosize=1;strokeColor=none;fillColor=none;" parent="1" vertex="1">
          <mxGeometry x="-10" y="-1115" width="60" height="30" as="geometry" />
        </mxCell>
        <mxCell id="Z79DcYoqA_sEa1cY5hHF-3" value="" style="endArrow=none;dashed=1;html=1;dashPattern=1 3;strokeWidth=2;rounded=0;" parent="1" edge="1">
          <mxGeometry width="50" height="50" relative="1" as="geometry">
            <mxPoint y="-1035" as="sourcePoint" />
            <mxPoint x="790" y="-1030" as="targetPoint" />
          </mxGeometry>
        </mxCell>
        <mxCell id="Z79DcYoqA_sEa1cY5hHF-4" value="Pledges" style="text;html=1;align=center;verticalAlign=middle;resizable=0;points=[];autosize=1;strokeColor=none;fillColor=none;" parent="1" vertex="1">
          <mxGeometry x="-150" y="-992" width="70" height="30" as="geometry" />
        </mxCell>
        <mxCell id="Z79DcYoqA_sEa1cY5hHF-5" value="Initiatives&amp;nbsp;" style="text;html=1;align=center;verticalAlign=middle;whiteSpace=wrap;rounded=0;" parent="1" vertex="1">
          <mxGeometry x="-140" y="-870" width="60" height="30" as="geometry" />
        </mxCell>
        <mxCell id="Z79DcYoqA_sEa1cY5hHF-7" value="Smart Goals" style="text;html=1;align=center;verticalAlign=middle;whiteSpace=wrap;rounded=0;" parent="1" vertex="1">
          <mxGeometry x="-140" y="-750" width="60" height="30" as="geometry" />
        </mxCell>
        <mxCell id="Z79DcYoqA_sEa1cY5hHF-8" value="" style="endArrow=none;dashed=1;html=1;dashPattern=1 3;strokeWidth=2;rounded=0;" parent="1" edge="1">
          <mxGeometry width="50" height="50" relative="1" as="geometry">
            <mxPoint x="-150" y="-910" as="sourcePoint" />
            <mxPoint x="800" y="-910" as="targetPoint" />
          </mxGeometry>
        </mxCell>
        <mxCell id="Z79DcYoqA_sEa1cY5hHF-9" value="" style="endArrow=none;dashed=1;html=1;dashPattern=1 3;strokeWidth=2;rounded=0;" parent="1" edge="1">
          <mxGeometry width="50" height="50" relative="1" as="geometry">
            <mxPoint x="-150" y="-780" as="sourcePoint" />
            <mxPoint x="800" y="-780" as="targetPoint" />
          </mxGeometry>
        </mxCell>
        <mxCell id="Z79DcYoqA_sEa1cY5hHF-64" style="edgeStyle=orthogonalEdgeStyle;rounded=0;orthogonalLoop=1;jettySize=auto;html=1;exitX=0.75;exitY=1;exitDx=0;exitDy=0;entryX=0.25;entryY=0;entryDx=0;entryDy=0;" parent="1" source="Z79DcYoqA_sEa1cY5hHF-10" target="Z79DcYoqA_sEa1cY5hHF-13" edge="1">
          <mxGeometry relative="1" as="geometry" />
        </mxCell>
        <mxCell id="Z79DcYoqA_sEa1cY5hHF-10" value="Hear Your Story" style="rounded=1;whiteSpace=wrap;html=1;" parent="1" vertex="1">
          <mxGeometry x="130" y="-1007" width="120" height="60" as="geometry" />
        </mxCell>
        <mxCell id="Z79DcYoqA_sEa1cY5hHF-65" style="edgeStyle=orthogonalEdgeStyle;rounded=0;orthogonalLoop=1;jettySize=auto;html=1;exitX=0.5;exitY=1;exitDx=0;exitDy=0;entryX=0.5;entryY=0;entryDx=0;entryDy=0;" parent="1" source="Z79DcYoqA_sEa1cY5hHF-11" target="Z79DcYoqA_sEa1cY5hHF-14" edge="1">
          <mxGeometry relative="1" as="geometry" />
        </mxCell>
        <mxCell id="Z79DcYoqA_sEa1cY5hHF-66" style="edgeStyle=orthogonalEdgeStyle;rounded=0;orthogonalLoop=1;jettySize=auto;html=1;exitX=0.75;exitY=1;exitDx=0;exitDy=0;" parent="1" source="Z79DcYoqA_sEa1cY5hHF-11" target="Z79DcYoqA_sEa1cY5hHF-15" edge="1">
          <mxGeometry relative="1" as="geometry" />
        </mxCell>
        <mxCell id="Z79DcYoqA_sEa1cY5hHF-67" style="edgeStyle=orthogonalEdgeStyle;rounded=0;orthogonalLoop=1;jettySize=auto;html=1;exitX=1;exitY=1;exitDx=0;exitDy=0;" parent="1" source="Z79DcYoqA_sEa1cY5hHF-11" target="Z79DcYoqA_sEa1cY5hHF-51" edge="1">
          <mxGeometry relative="1" as="geometry" />
        </mxCell>
        <mxCell id="Z79DcYoqA_sEa1cY5hHF-11" value="Ethnicity Pay Gap" style="rounded=1;whiteSpace=wrap;html=1;" parent="1" vertex="1">
          <mxGeometry x="380" y="-1007" width="120" height="60" as="geometry" />
        </mxCell>
        <mxCell id="Z79DcYoqA_sEa1cY5hHF-26" value="" style="edgeStyle=orthogonalEdgeStyle;rounded=0;orthogonalLoop=1;jettySize=auto;html=1;" parent="1" source="Z79DcYoqA_sEa1cY5hHF-12" target="Z79DcYoqA_sEa1cY5hHF-25" edge="1">
          <mxGeometry relative="1" as="geometry" />
        </mxCell>
        <mxCell id="Z79DcYoqA_sEa1cY5hHF-29" value="" style="edgeStyle=orthogonalEdgeStyle;rounded=0;orthogonalLoop=1;jettySize=auto;html=1;" parent="1" source="Z79DcYoqA_sEa1cY5hHF-12" target="Z79DcYoqA_sEa1cY5hHF-25" edge="1">
          <mxGeometry relative="1" as="geometry" />
        </mxCell>
        <mxCell id="Z79DcYoqA_sEa1cY5hHF-30" value="" style="edgeStyle=orthogonalEdgeStyle;rounded=0;orthogonalLoop=1;jettySize=auto;html=1;" parent="1" source="Z79DcYoqA_sEa1cY5hHF-12" target="Z79DcYoqA_sEa1cY5hHF-25" edge="1">
          <mxGeometry relative="1" as="geometry" />
        </mxCell>
        <mxCell id="Z79DcYoqA_sEa1cY5hHF-12" value="Representation" style="rounded=1;whiteSpace=wrap;html=1;" parent="1" vertex="1">
          <mxGeometry x="100" y="-880" width="120" height="60" as="geometry" />
        </mxCell>
        <mxCell id="Z79DcYoqA_sEa1cY5hHF-35" value="" style="edgeStyle=orthogonalEdgeStyle;rounded=0;orthogonalLoop=1;jettySize=auto;html=1;" parent="1" source="Z79DcYoqA_sEa1cY5hHF-13" target="Z79DcYoqA_sEa1cY5hHF-34" edge="1">
          <mxGeometry relative="1" as="geometry" />
        </mxCell>
        <mxCell id="Z79DcYoqA_sEa1cY5hHF-57" style="edgeStyle=orthogonalEdgeStyle;rounded=0;orthogonalLoop=1;jettySize=auto;html=1;exitX=0.75;exitY=1;exitDx=0;exitDy=0;" parent="1" source="Z79DcYoqA_sEa1cY5hHF-13" target="Z79DcYoqA_sEa1cY5hHF-36" edge="1">
          <mxGeometry relative="1" as="geometry" />
        </mxCell>
        <mxCell id="Z79DcYoqA_sEa1cY5hHF-59" style="edgeStyle=orthogonalEdgeStyle;rounded=0;orthogonalLoop=1;jettySize=auto;html=1;exitX=0;exitY=1;exitDx=0;exitDy=0;entryX=0;entryY=0.75;entryDx=0;entryDy=0;" parent="1" source="Z79DcYoqA_sEa1cY5hHF-13" target="Z79DcYoqA_sEa1cY5hHF-39" edge="1">
          <mxGeometry relative="1" as="geometry" />
        </mxCell>
        <mxCell id="Z79DcYoqA_sEa1cY5hHF-13" value="Events" style="rounded=1;whiteSpace=wrap;html=1;" parent="1" vertex="1">
          <mxGeometry x="290" y="-880" width="120" height="60" as="geometry" />
        </mxCell>
        <mxCell id="Z79DcYoqA_sEa1cY5hHF-68" style="edgeStyle=orthogonalEdgeStyle;rounded=0;orthogonalLoop=1;jettySize=auto;html=1;exitX=0;exitY=1;exitDx=0;exitDy=0;entryX=0;entryY=0.75;entryDx=0;entryDy=0;" parent="1" source="Z79DcYoqA_sEa1cY5hHF-14" target="Z79DcYoqA_sEa1cY5hHF-41" edge="1">
          <mxGeometry relative="1" as="geometry" />
        </mxCell>
        <mxCell id="Z79DcYoqA_sEa1cY5hHF-69" style="edgeStyle=orthogonalEdgeStyle;rounded=0;orthogonalLoop=1;jettySize=auto;html=1;exitX=0.25;exitY=1;exitDx=0;exitDy=0;entryX=0.25;entryY=0;entryDx=0;entryDy=0;" parent="1" source="Z79DcYoqA_sEa1cY5hHF-14" target="Z79DcYoqA_sEa1cY5hHF-42" edge="1">
          <mxGeometry relative="1" as="geometry" />
        </mxCell>
        <mxCell id="Z79DcYoqA_sEa1cY5hHF-70" style="edgeStyle=orthogonalEdgeStyle;rounded=0;orthogonalLoop=1;jettySize=auto;html=1;entryX=0.75;entryY=0;entryDx=0;entryDy=0;" parent="1" source="Z79DcYoqA_sEa1cY5hHF-14" target="Z79DcYoqA_sEa1cY5hHF-43" edge="1">
          <mxGeometry relative="1" as="geometry" />
        </mxCell>
        <mxCell id="Z79DcYoqA_sEa1cY5hHF-72" style="edgeStyle=orthogonalEdgeStyle;rounded=0;orthogonalLoop=1;jettySize=auto;html=1;exitX=1;exitY=1;exitDx=0;exitDy=0;entryX=1;entryY=0.5;entryDx=0;entryDy=0;" parent="1" source="Z79DcYoqA_sEa1cY5hHF-14" target="Z79DcYoqA_sEa1cY5hHF-44" edge="1">
          <mxGeometry relative="1" as="geometry" />
        </mxCell>
        <mxCell id="Z79DcYoqA_sEa1cY5hHF-14" value="Data" style="rounded=1;whiteSpace=wrap;html=1;" parent="1" vertex="1">
          <mxGeometry x="500" y="-880" width="120" height="60" as="geometry" />
        </mxCell>
        <mxCell id="oXtTZe1hNoor0Rq5heep-1" style="edgeStyle=orthogonalEdgeStyle;rounded=0;orthogonalLoop=1;jettySize=auto;html=1;" edge="1" parent="1" source="Z79DcYoqA_sEa1cY5hHF-15" target="Z79DcYoqA_sEa1cY5hHF-47">
          <mxGeometry relative="1" as="geometry" />
        </mxCell>
        <mxCell id="oXtTZe1hNoor0Rq5heep-2" style="edgeStyle=orthogonalEdgeStyle;rounded=0;orthogonalLoop=1;jettySize=auto;html=1;exitX=0.25;exitY=1;exitDx=0;exitDy=0;entryX=0;entryY=0.5;entryDx=0;entryDy=0;" edge="1" parent="1" source="Z79DcYoqA_sEa1cY5hHF-15" target="Z79DcYoqA_sEa1cY5hHF-48">
          <mxGeometry relative="1" as="geometry" />
        </mxCell>
        <mxCell id="oXtTZe1hNoor0Rq5heep-3" style="edgeStyle=orthogonalEdgeStyle;rounded=0;orthogonalLoop=1;jettySize=auto;html=1;exitX=0;exitY=0.75;exitDx=0;exitDy=0;entryX=0;entryY=0.75;entryDx=0;entryDy=0;" edge="1" parent="1" source="Z79DcYoqA_sEa1cY5hHF-15" target="Z79DcYoqA_sEa1cY5hHF-49">
          <mxGeometry relative="1" as="geometry" />
        </mxCell>
        <mxCell id="oXtTZe1hNoor0Rq5heep-4" style="edgeStyle=orthogonalEdgeStyle;rounded=0;orthogonalLoop=1;jettySize=auto;html=1;entryX=1;entryY=0.75;entryDx=0;entryDy=0;" edge="1" parent="1" source="Z79DcYoqA_sEa1cY5hHF-15" target="Z79DcYoqA_sEa1cY5hHF-50">
          <mxGeometry relative="1" as="geometry" />
        </mxCell>
        <mxCell id="Z79DcYoqA_sEa1cY5hHF-15" value="Promotions" style="rounded=1;whiteSpace=wrap;html=1;" parent="1" vertex="1">
          <mxGeometry x="680" y="-880" width="120" height="60" as="geometry" />
        </mxCell>
        <mxCell id="Z79DcYoqA_sEa1cY5hHF-25" value="10,000 Black interns" style="rounded=1;whiteSpace=wrap;html=1;" parent="1" vertex="1">
          <mxGeometry x="-10" y="-510" width="120" height="60" as="geometry" />
        </mxCell>
        <mxCell id="Z79DcYoqA_sEa1cY5hHF-54" style="edgeStyle=orthogonalEdgeStyle;rounded=0;orthogonalLoop=1;jettySize=auto;html=1;exitX=0.75;exitY=1;exitDx=0;exitDy=0;" parent="1" source="Z79DcYoqA_sEa1cY5hHF-12" target="Z79DcYoqA_sEa1cY5hHF-31" edge="1">
          <mxGeometry relative="1" as="geometry" />
        </mxCell>
        <mxCell id="Z79DcYoqA_sEa1cY5hHF-31" value="Multi-faith networks" style="rounded=1;whiteSpace=wrap;html=1;" parent="1" vertex="1">
          <mxGeometry x="110" y="-614" width="120" height="60" as="geometry" />
        </mxCell>
        <mxCell id="Z79DcYoqA_sEa1cY5hHF-55" style="edgeStyle=orthogonalEdgeStyle;rounded=0;orthogonalLoop=1;jettySize=auto;html=1;exitX=0.25;exitY=1;exitDx=0;exitDy=0;" parent="1" source="Z79DcYoqA_sEa1cY5hHF-12" target="Z79DcYoqA_sEa1cY5hHF-32" edge="1">
          <mxGeometry relative="1" as="geometry">
            <Array as="points">
              <mxPoint x="90" y="-820" />
              <mxPoint x="90" y="-577" />
            </Array>
          </mxGeometry>
        </mxCell>
        <mxCell id="Z79DcYoqA_sEa1cY5hHF-32" value="Interview champions" style="rounded=1;whiteSpace=wrap;html=1;" parent="1" vertex="1">
          <mxGeometry x="-100" y="-600" width="120" height="46" as="geometry" />
        </mxCell>
        <mxCell id="Z79DcYoqA_sEa1cY5hHF-56" style="edgeStyle=orthogonalEdgeStyle;rounded=0;orthogonalLoop=1;jettySize=auto;html=1;exitX=1;exitY=0.5;exitDx=0;exitDy=0;" parent="1" source="Z79DcYoqA_sEa1cY5hHF-12" target="Z79DcYoqA_sEa1cY5hHF-33" edge="1">
          <mxGeometry relative="1" as="geometry">
            <Array as="points">
              <mxPoint x="240" y="-850" />
              <mxPoint x="240" y="-650" />
              <mxPoint x="250" y="-650" />
              <mxPoint x="250" y="-490" />
            </Array>
          </mxGeometry>
        </mxCell>
        <mxCell id="Z79DcYoqA_sEa1cY5hHF-33" value="UK Black Business Show" style="rounded=1;whiteSpace=wrap;html=1;" parent="1" vertex="1">
          <mxGeometry x="120" y="-520" width="120" height="60" as="geometry" />
        </mxCell>
        <mxCell id="Z79DcYoqA_sEa1cY5hHF-34" value="Ramadan" style="whiteSpace=wrap;html=1;rounded=1;" parent="1" vertex="1">
          <mxGeometry x="290" y="-740" width="120" height="60" as="geometry" />
        </mxCell>
        <mxCell id="Z79DcYoqA_sEa1cY5hHF-36" value="Bias in AI version 1" style="rounded=1;whiteSpace=wrap;html=1;" parent="1" vertex="1">
          <mxGeometry x="290" y="-640" width="120" height="60" as="geometry" />
        </mxCell>
        <mxCell id="Z79DcYoqA_sEa1cY5hHF-38" value="Bias in AI version 2" style="rounded=1;whiteSpace=wrap;html=1;" parent="1" vertex="1">
          <mxGeometry x="300" y="-550" width="120" height="60" as="geometry" />
        </mxCell>
        <mxCell id="Z79DcYoqA_sEa1cY5hHF-39" value="Pride Takeover" style="rounded=1;whiteSpace=wrap;html=1;" parent="1" vertex="1">
          <mxGeometry x="300" y="-470" width="120" height="60" as="geometry" />
        </mxCell>
        <mxCell id="Z79DcYoqA_sEa1cY5hHF-40" value="Archives" style="rounded=1;whiteSpace=wrap;html=1;" parent="1" vertex="1">
          <mxGeometry x="300" y="-380" width="120" height="60" as="geometry" />
        </mxCell>
        <mxCell id="Z79DcYoqA_sEa1cY5hHF-41" value="Collecting Ethnicity Data" style="rounded=1;whiteSpace=wrap;html=1;" parent="1" vertex="1">
          <mxGeometry x="520" y="-760" width="120" height="60" as="geometry" />
        </mxCell>
        <mxCell id="Z79DcYoqA_sEa1cY5hHF-42" value="Benchmark against industry standard" style="rounded=1;whiteSpace=wrap;html=1;" parent="1" vertex="1">
          <mxGeometry x="510" y="-680" width="120" height="60" as="geometry" />
        </mxCell>
        <mxCell id="Z79DcYoqA_sEa1cY5hHF-43" value="Top down approach, talking with the top" style="rounded=1;whiteSpace=wrap;html=1;" parent="1" vertex="1">
          <mxGeometry x="520" y="-600" width="120" height="60" as="geometry" />
        </mxCell>
        <mxCell id="Z79DcYoqA_sEa1cY5hHF-44" value="Surveys" style="rounded=1;whiteSpace=wrap;html=1;" parent="1" vertex="1">
          <mxGeometry x="530" y="-440" width="120" height="60" as="geometry" />
        </mxCell>
        <mxCell id="Z79DcYoqA_sEa1cY5hHF-45" value="Dashboards" style="rounded=1;whiteSpace=wrap;html=1;" parent="1" vertex="1">
          <mxGeometry x="530" y="-520" width="120" height="60" as="geometry" />
        </mxCell>
        <mxCell id="Z79DcYoqA_sEa1cY5hHF-46" value="" style="rounded=1;whiteSpace=wrap;html=1;" parent="1" vertex="1">
          <mxGeometry x="720" y="-720" width="120" height="60" as="geometry" />
        </mxCell>
        <mxCell id="Z79DcYoqA_sEa1cY5hHF-47" value="Linkedin Learning" style="rounded=1;whiteSpace=wrap;html=1;" parent="1" vertex="1">
          <mxGeometry x="720" y="-720" width="120" height="60" as="geometry" />
        </mxCell>
        <mxCell id="Z79DcYoqA_sEa1cY5hHF-48" value="Mentorship program" style="rounded=1;whiteSpace=wrap;html=1;" parent="1" vertex="1">
          <mxGeometry x="720" y="-640" width="120" height="60" as="geometry" />
        </mxCell>
        <mxCell id="Z79DcYoqA_sEa1cY5hHF-49" value="Training" style="rounded=1;whiteSpace=wrap;html=1;" parent="1" vertex="1">
          <mxGeometry x="720" y="-560" width="120" height="60" as="geometry" />
        </mxCell>
        <mxCell id="Z79DcYoqA_sEa1cY5hHF-50" value="Review policies" style="rounded=1;whiteSpace=wrap;html=1;" parent="1" vertex="1">
          <mxGeometry x="720" y="-470" width="120" height="60" as="geometry" />
        </mxCell>
        <mxCell id="oXtTZe1hNoor0Rq5heep-5" style="edgeStyle=orthogonalEdgeStyle;rounded=0;orthogonalLoop=1;jettySize=auto;html=1;" edge="1" parent="1" source="Z79DcYoqA_sEa1cY5hHF-51" target="Z79DcYoqA_sEa1cY5hHF-52">
          <mxGeometry relative="1" as="geometry" />
        </mxCell>
        <mxCell id="oXtTZe1hNoor0Rq5heep-6" style="edgeStyle=orthogonalEdgeStyle;rounded=0;orthogonalLoop=1;jettySize=auto;html=1;entryX=1;entryY=0.5;entryDx=0;entryDy=0;" edge="1" parent="1" source="Z79DcYoqA_sEa1cY5hHF-51" target="Z79DcYoqA_sEa1cY5hHF-53">
          <mxGeometry relative="1" as="geometry" />
        </mxCell>
        <mxCell id="Z79DcYoqA_sEa1cY5hHF-51" value="Recruitment&amp;nbsp;" style="rounded=1;whiteSpace=wrap;html=1;" parent="1" vertex="1">
          <mxGeometry x="840" y="-880" width="120" height="60" as="geometry" />
        </mxCell>
        <mxCell id="Z79DcYoqA_sEa1cY5hHF-52" value="80/20" style="rounded=1;whiteSpace=wrap;html=1;" parent="1" vertex="1">
          <mxGeometry x="890" y="-730" width="120" height="60" as="geometry" />
        </mxCell>
        <mxCell id="Z79DcYoqA_sEa1cY5hHF-53" value="Hotshoes" style="rounded=1;whiteSpace=wrap;html=1;" parent="1" vertex="1">
          <mxGeometry x="890" y="-640" width="120" height="60" as="geometry" />
        </mxCell>
        <mxCell id="Z79DcYoqA_sEa1cY5hHF-58" style="edgeStyle=orthogonalEdgeStyle;rounded=0;orthogonalLoop=1;jettySize=auto;html=1;exitX=1;exitY=1;exitDx=0;exitDy=0;entryX=0.988;entryY=0.11;entryDx=0;entryDy=0;entryPerimeter=0;" parent="1" source="Z79DcYoqA_sEa1cY5hHF-13" target="Z79DcYoqA_sEa1cY5hHF-38" edge="1">
          <mxGeometry relative="1" as="geometry" />
        </mxCell>
        <mxCell id="Z79DcYoqA_sEa1cY5hHF-60" style="edgeStyle=orthogonalEdgeStyle;rounded=0;orthogonalLoop=1;jettySize=auto;html=1;exitX=0;exitY=0.5;exitDx=0;exitDy=0;entryX=-0.036;entryY=0.943;entryDx=0;entryDy=0;entryPerimeter=0;" parent="1" source="Z79DcYoqA_sEa1cY5hHF-13" target="Z79DcYoqA_sEa1cY5hHF-40" edge="1">
          <mxGeometry relative="1" as="geometry" />
        </mxCell>
        <mxCell id="Z79DcYoqA_sEa1cY5hHF-63" style="edgeStyle=orthogonalEdgeStyle;rounded=0;orthogonalLoop=1;jettySize=auto;html=1;exitX=0.25;exitY=1;exitDx=0;exitDy=0;entryX=0.167;entryY=0;entryDx=0;entryDy=0;entryPerimeter=0;" parent="1" source="Z79DcYoqA_sEa1cY5hHF-10" target="Z79DcYoqA_sEa1cY5hHF-12" edge="1">
          <mxGeometry relative="1" as="geometry" />
        </mxCell>
        <mxCell id="Z79DcYoqA_sEa1cY5hHF-71" style="edgeStyle=orthogonalEdgeStyle;rounded=0;orthogonalLoop=1;jettySize=auto;html=1;exitX=0.75;exitY=1;exitDx=0;exitDy=0;entryX=0.874;entryY=0.017;entryDx=0;entryDy=0;entryPerimeter=0;" parent="1" source="Z79DcYoqA_sEa1cY5hHF-14" target="Z79DcYoqA_sEa1cY5hHF-45" edge="1">
          <mxGeometry relative="1" as="geometry" />
        </mxCell>
      </root>
    </mxGraphModel>
  </diagram>
</mxfile>
